<svg xmlns="http://www.w3.org/2000/svg" viewBox="0 0 25.01 23.46" style="stroke: transparent;"><defs><style>.cls-1{isolation:isolate;}.cls-2{fill:#292929;}</style></defs><title>printer</title><g id="_" data-name=" " class="cls-1"><g class="cls-1"><path class="cls-2" d="M25.51,20.33a.5.5,0,0,1-.49.49H21.66v2.44a1.46,1.46,0,0,1-1.45,1.47H5.79a1.46,1.46,0,0,1-1.45-1.47V20.82H1a.5.5,0,0,1-.49-.49V14A2.93,2.93,0,0,1,3.38,11h1V2.74A1.46,1.46,0,0,1,5.79,1.27h10.1a4,4,0,0,1,2.46,1l2.29,2.32a4.09,4.09,0,0,1,1,2.5V11h1A2.93,2.93,0,0,1,25.51,14ZM19.73,13V7.13h-2.4a1.44,1.44,0,0,1-1.44-1.46V3.22H6.27V13Zm0,9.78V18.87H6.27v3.91ZM22.62,13a1,1,0,0,0,0,2,1,1,0,0,0,0-2Z" transform="translate(-0.49 -1.27)"></path></g></g></svg>