<svg xmlns="http://www.w3.org/2000/svg" viewBox="0 0 31 28" style="stroke: transparent;"><defs><style>.cls-1{isolation:isolate;}.cls-2{fill:#292929;}</style></defs><title>callbooth</title><g id="_" data-name=" " class="cls-1"><g class="cls-1"><path class="cls-2" d="M12.56,12.75a1.64,1.64,0,0,1,1.21.52,1.74,1.74,0,0,1,0,2.46,1.64,1.64,0,0,1-1.21.52H9.43a2.37,2.37,0,0,1-1.77-.77L6.53,14.34v4.43l2.2,3.33a3.25,3.25,0,0,1,.38,1.59v3.06A1.71,1.71,0,0,1,8.6,28a1.62,1.62,0,0,1-1.21.52,1.64,1.64,0,0,1-.89-.25,1.7,1.7,0,0,1-.62-.63,1.75,1.75,0,0,1-.21-.87V23.69L4.05,21.34c-.07,0-.11-.08-.11-.11v5.52A1.71,1.71,0,0,1,3.43,28a1.62,1.62,0,0,1-1.21.52,1.5,1.5,0,0,1-.86-.25,2,2,0,0,1-.62-.63,1.58,1.58,0,0,1-.24-.87v-14a3.38,3.38,0,0,1,1-2.46,3.29,3.29,0,0,1,2.42-1H5a3.29,3.29,0,0,1,2.42,1l2.42,2.46Zm-6.79-6a2.43,2.43,0,0,1-1.83.77,2.46,2.46,0,0,1-1.83-.77,2.55,2.55,0,0,1-.75-1.85A2.56,2.56,0,0,1,2.11,3a2.5,2.5,0,0,1,1.83-.77A2.47,2.47,0,0,1,5.77,3a2.53,2.53,0,0,1,.76,1.86A2.52,2.52,0,0,1,5.77,6.73Zm5.06-4.48A1.71,1.71,0,0,1,11.34,1,1.66,1.66,0,0,1,12.56.5h1.72V11H10.83Zm0,25.37V18h3.45v9.62a.85.85,0,0,1-.24.63.83.83,0,0,1-.62.25H11.69a.79.79,0,0,1-.61-.25A.82.82,0,0,1,10.83,27.62ZM16,2.25V.5H26.33V23.25a1.71,1.71,0,0,1-.51,1.23,1.67,1.67,0,0,1-2.42,0,1.71,1.71,0,0,1-.51-1.23,1.71,1.71,0,0,1-.51,1.23,1.64,1.64,0,0,1-1.21.52A1.61,1.61,0,0,1,20,24.51a1.85,1.85,0,0,1-.54-1.15c-.21,1.09-.78,1.64-1.72,1.64a1.73,1.73,0,0,1-1.32-.63,1.51,1.51,0,0,1-.35-1.45l1.67-8.47ZM29.78.5A1.64,1.64,0,0,1,31,1a1.71,1.71,0,0,1,.51,1.23V27.62a.85.85,0,0,1-.24.63.81.81,0,0,1-.62.25H28.92a.81.81,0,0,1-.62-.25.85.85,0,0,1-.24-.63V.5Z" transform="translate(-0.5 -0.5)"></path></g></g></svg>