<svg xmlns="http://www.w3.org/2000/svg" viewBox="0 0 28 28" style="stroke: transparent;"><defs><style>.cls-1{isolation:isolate;}.cls-2{fill:#292929;}</style></defs><title>coffee</title><g id="_" data-name=" " class="cls-1"><g class="cls-1"><path class="cls-2" d="M22.38,11a6.15,6.15,0,0,1,6.12,6.13,6.15,6.15,0,0,1-6.12,6.12H21.5a5.22,5.22,0,0,1-5.25,5.25H5.75A5.06,5.06,0,0,1,2,27,5.06,5.06,0,0,1,.5,23.25V12.75A1.68,1.68,0,0,1,1,11.52,1.68,1.68,0,0,1,2.25,11ZM7.45,8.48a4.45,4.45,0,0,0-1.21-2.4A7.69,7.69,0,0,1,4,1.48.8.8,0,0,1,4.22.8.85.85,0,0,1,4.87.5H5.8a.8.8,0,0,1,.88.77A4.82,4.82,0,0,0,8.1,4.16a6.93,6.93,0,0,1,2,4.11A.79.79,0,0,1,9.91,9a.88.88,0,0,1-.66.3H8.32A.79.79,0,0,1,7.45,8.48Zm6.12,0a4.5,4.5,0,0,0-1.2-2.4,7.65,7.65,0,0,1-2.25-4.6A1.14,1.14,0,0,1,10.23,1a1,1,0,0,1,.33-.35A.84.84,0,0,1,11,.5h.93a.79.79,0,0,1,.87.77,4.84,4.84,0,0,0,1.43,2.89,7,7,0,0,1,2,4.11A.8.8,0,0,1,16,9a.85.85,0,0,1-.65.3h-.93A.8.8,0,0,1,13.57,8.48Zm8.81,11.27a2.62,2.62,0,0,0,1.85-4.48,2.53,2.53,0,0,0-1.85-.77H21.5v5.25Z" transform="translate(-0.5 -0.5)"></path></g></g></svg>