<svg xmlns="http://www.w3.org/2000/svg" id="Layer_1" data-name="Layer 1" width="49" height="49" viewBox="0 0 49 49"><defs><style>.cls-1{fill:#faf575;}</style></defs><title>instagram icon</title><circle id="Ellipse_2_copy_2" data-name="Ellipse 2 copy 2" class="cls-1" cx="24.5" cy="24.5" r="24.5"></circle><path d="M34.79,25.3c0,2.11,0,3.65-.07,4.57a9.64,9.64,0,0,1-.34,2.39,5.88,5.88,0,0,1-1.25,2.13,5.28,5.28,0,0,1-2.06,1.35,9.12,9.12,0,0,1-2.32.42c-.86.05-2.29.07-4.28.07s-3.41,0-4.28-.07a7.71,7.71,0,0,1-2.32-.46,5,5,0,0,1-2-1.3,5.79,5.79,0,0,1-1.16-2.14,9.35,9.35,0,0,1-.4-2.41c0-.93-.07-2.46-.07-4.57s0-3.64.07-4.57a9.56,9.56,0,0,1,.4-2.37A5.84,5.84,0,0,1,16,16.22a5.39,5.39,0,0,1,2-1.36,8.7,8.7,0,0,1,2.32-.41c.87,0,2.3-.07,4.28-.07s3.4,0,4.28.07a8.7,8.7,0,0,1,2.32.41,5.22,5.22,0,0,1,2,1.35,5.67,5.67,0,0,1,1.22,2.13,10.06,10.06,0,0,1,.42,2.44C34.76,21.67,34.79,23.19,34.79,25.3Zm-1.88,3.81V21.5a10.27,10.27,0,0,0-.37-2.65,3.46,3.46,0,0,0-2-2.1,8.27,8.27,0,0,0-2.47-.38c-.67,0-1.62-.06-2.84-.06H23.79c-1.23,0-2.17,0-2.84.06a9,9,0,0,0-2.47.38,3.46,3.46,0,0,0-2,2.1,10.27,10.27,0,0,0-.37,2.65v7.61a11.21,11.21,0,0,0,.37,2.64,3.6,3.6,0,0,0,2,2.1,9.37,9.37,0,0,0,2.47.39c.67,0,1.61,0,2.84,0h1.46c1.25,0,2.21,0,2.84,0a8.61,8.61,0,0,0,2.47-.39,3.57,3.57,0,0,0,2-2.1A11.21,11.21,0,0,0,32.91,29.11Zm-5.8-8.67A5.59,5.59,0,0,1,29,22.5a5.88,5.88,0,0,1,0,5.61,5.48,5.48,0,0,1-1.92,2.05,5,5,0,0,1-5.27,0,5.4,5.4,0,0,1-1.92-2.05,5.88,5.88,0,0,1,0-5.61,5.5,5.5,0,0,1,1.92-2.06A5,5,0,0,1,27.11,20.44Zm-.21,7.45a3.81,3.81,0,0,0,0-5.17,3.26,3.26,0,0,0-4.6-.25,3,3,0,0,0-.25.25,3.81,3.81,0,0,0,0,5.17,3.26,3.26,0,0,0,4.6.25A3,3,0,0,0,26.9,27.89Zm4-9.37a1.17,1.17,0,0,0-1.64-.11l-.1.11a1.34,1.34,0,0,0,0,1.85,1.16,1.16,0,0,0,.87.39,1.21,1.21,0,0,0,.85-.39,1.59,1.59,0,0,0,.39-.93A1.28,1.28,0,0,0,30.9,18.52Z" transform="translate(-0.5 -0.5)"></path></svg>