<svg xmlns="http://www.w3.org/2000/svg" id="Layer_1" data-name="Layer 1" width="35" height="21" viewBox="0 0 35 21"><defs><style>.cls-1{isolation:isolate;}.cls-2{fill:#292929;}</style></defs><title>meeting</title><g id="_" data-name=" " class="cls-1"><g class="cls-1"><path class="cls-2" d="M28.31,3.86h6.62v14h-3.5a1.78,1.78,0,0,1-1.75-1.75H26.51a3.2,3.2,0,0,1-.6,1.26l-1.42,1.75a3,3,0,0,1-1.62,1.06A2.89,2.89,0,0,1,21,20.05a3.29,3.29,0,0,1-2.68,1.31,3.41,3.41,0,0,1-2.25-.88,4.41,4.41,0,0,1-2.87.88,4.69,4.69,0,0,1-2.87-1.09L5.67,16.11H5.18a1.51,1.51,0,0,1-.25.87,2,2,0,0,1-.62.63,1.56,1.56,0,0,1-.88.25H-.07v-14H6.38L9,1.23A2.9,2.9,0,0,1,11.14.36H23.56a3.09,3.09,0,0,1,2.18.87Zm-26.38,12a.8.8,0,0,0,.63.27.8.8,0,0,0,.62-.27.92.92,0,0,0,.25-.63.79.79,0,0,0-.25-.6.81.81,0,0,0-.62-.25.82.82,0,0,0-.63.25.79.79,0,0,0-.25.6A.92.92,0,0,0,1.93,15.84Zm22-.11a.43.43,0,0,0-.05-.66l-5.91-4.76-.49.39a3.52,3.52,0,0,1-2.21,1,3.93,3.93,0,0,1-2-.33,5.24,5.24,0,0,1-1.28-.9,3.84,3.84,0,0,1-1-2.82A3.8,3.8,0,0,1,12.13,4.9L14.26,3H11.14A.27.27,0,0,0,11,3a.21.21,0,0,1-.13,0L7.48,6.48H5.18v7H6.71L12,18.3a1.92,1.92,0,0,0,1.55.43A2,2,0,0,0,15,17.91l.88-1,2,1.74c.33.26.66.21,1-.16l1.64-2,1.31,1a.38.38,0,0,0,.6-.05Zm5.8-2.25v-7H27.22L23.88,3.09A.62.62,0,0,0,23.56,3H19a2.11,2.11,0,0,0-1.47.61L13.93,6.87a1,1,0,0,0-.44.87,1.44,1.44,0,0,0,.39,1,1,1,0,0,0,.9.35,1.56,1.56,0,0,0,1-.35l3-2.79A.79.79,0,0,1,20,6l.6.66a.73.73,0,0,1-.05,1.2l-.71.66,5.63,4.54.44.43Zm2,2.36a.86.86,0,0,0,1.25,0,.92.92,0,0,0,.25-.63.79.79,0,0,0-.25-.6.91.91,0,0,0-1.25,0,.79.79,0,0,0-.25.6A.92.92,0,0,0,31.68,15.84Z" transform="translate(0.07 -0.36)"></path></g></g></svg>