<svg xmlns="http://www.w3.org/2000/svg" id="Layer_1" data-name="Layer 1" width="49" height="49" viewBox="0 0 49 49"><defs><style>.cls-1{fill:#faf575;}</style></defs><title>twitter icon</title><circle id="Ellipse_2_copy_2" data-name="Ellipse 2 copy 2" class="cls-1" cx="24.5" cy="24.5" r="24.5"></circle><path d="M33.14,20.52v.58c0,5.93-4.24,12.74-12,12.74a11.31,11.31,0,0,1-6.46-2,8.68,8.68,0,0,0,1,0A8,8,0,0,0,20.94,30,4.26,4.26,0,0,1,17,26.88a7,7,0,0,0,.8.07A4.09,4.09,0,0,0,19,26.79a4.44,4.44,0,0,1-3.42-4.4h0a4.3,4.3,0,0,0,1.91.58,4.61,4.61,0,0,1-1.87-3.74,4.78,4.78,0,0,1,.56-2.31,11.79,11.79,0,0,0,8.68,4.7,7.05,7.05,0,0,1-.11-1,4.38,4.38,0,0,1,4.22-4.49A4.15,4.15,0,0,1,32,17.52a7.81,7.81,0,0,0,2.66-1.08,4.45,4.45,0,0,1-1.85,2.49,8,8,0,0,0,2.43-.69A9.74,9.74,0,0,1,33.14,20.52Z" transform="translate(-0.5 -0.5)"></path></svg>