<svg xmlns="http://www.w3.org/2000/svg" id="Layer_1" data-name="Layer 1" width="30" height="21" viewBox="0 0 30 21"><defs><style>.cls-1{isolation:isolate;}.cls-2{fill:#292929;}</style></defs><title>wifi</title><g id="_" data-name=" " class="cls-1"><g class="cls-1"><path class="cls-2" d="M27.6,9A17.76,17.76,0,0,0,3.4,9a.57.57,0,0,1-.33.13A8.61,8.61,0,0,1,.5,6.61a.49.49,0,0,1,.15-.34,21.72,21.72,0,0,1,29.7,0,.49.49,0,0,1,.15.34,8.61,8.61,0,0,1-2.57,2.53A.57.57,0,0,1,27.6,9ZM23.44,13.1C20.92,11.17,18.8,10,15.5,10c-4.61,0-8.13,3.19-8.29,3.19a8.58,8.58,0,0,1-2.56-2.53.49.49,0,0,1,.16-.33,15.76,15.76,0,0,1,21.38,0,.49.49,0,0,1,.16.33,8.58,8.58,0,0,1-2.56,2.53A.7.7,0,0,1,23.44,13.1ZM15.5,15.81c-2.26,0-3.9,1.51-4.12,1.51a8.56,8.56,0,0,1-2.59-2.53A.5.5,0,0,1,9,14.44a9.89,9.89,0,0,1,13.1,0,.5.5,0,0,1,.16.35,8.56,8.56,0,0,1-2.59,2.53A8.33,8.33,0,0,0,15.5,15.81ZM13,18.88c0-.74,2-1.14,2.54-1.14s2.54.4,2.54,1.14A7.56,7.56,0,0,1,15.5,21.4,7.56,7.56,0,0,1,13,18.88Z" transform="translate(-0.5 -0.4)"></path></g></g></svg>