<?xml version="1.0" encoding="utf-8"?>
<!-- Generator: Adobe Illustrator 16.0.0, SVG Export Plug-In . SVG Version: 6.00 Build 0)  -->
<!DOCTYPE svg PUBLIC "-//W3C//DTD SVG 1.1//EN" "http://www.w3.org/Graphics/SVG/1.1/DTD/svg11.dtd">
<svg version="1.1" id="Layer_1" xmlns="http://www.w3.org/2000/svg" xmlns:xlink="http://www.w3.org/1999/xlink" x="0px" y="0px"
	 width="13.299px" height="14px" viewBox="0 0 13.299 14" enable-background="new 0 0 13.299 14" xml:space="preserve">
<g>
	<path fill="#696969" d="M13.207,13.419c0.064,0.068,0.095,0.151,0.092,0.25s-0.04,0.179-0.113,0.243
		c-0.032,0.032-0.068,0.055-0.109,0.068S12.993,14,12.947,14s-0.091-0.009-0.137-0.027s-0.084-0.045-0.116-0.082L8.531,9.352
		C8.299,9.539,8.054,9.704,7.796,9.847s-0.524,0.263-0.8,0.359s-0.561,0.168-0.854,0.219S5.551,10.5,5.25,10.5
		c-0.351,0-0.695-0.033-1.032-0.099s-0.663-0.164-0.978-0.294S2.625,9.816,2.338,9.625s-0.554-0.413-0.8-0.663
		c-0.246-0.246-0.465-0.513-0.656-0.8S0.529,7.574,0.396,7.26S0.165,6.62,0.099,6.282S0,5.601,0,5.25s0.033-0.695,0.099-1.032
		S0.264,3.555,0.396,3.24S0.69,2.626,0.882,2.341s0.41-0.553,0.656-0.803c0.246-0.246,0.513-0.465,0.8-0.656S2.926,0.53,3.24,0.4
		s0.64-0.229,0.978-0.297S4.899,0,5.25,0s0.695,0.034,1.032,0.103S6.945,0.27,7.26,0.4S7.875,0.69,8.162,0.882s0.554,0.41,0.8,0.656
		c0.246,0.25,0.465,0.519,0.656,0.803s0.353,0.584,0.485,0.899s0.231,0.64,0.297,0.978S10.5,4.899,10.5,5.25
		c0,0.342-0.032,0.677-0.096,1.005s-0.157,0.646-0.28,0.954S9.85,7.81,9.669,8.09S9.283,8.634,9.051,8.88L13.207,13.419z
		 M0.697,5.25c0,0.629,0.12,1.219,0.359,1.771s0.565,1.033,0.978,1.446s0.895,0.738,1.446,0.978S4.621,9.803,5.25,9.803
		s1.219-0.12,1.771-0.359s1.033-0.565,1.446-0.978s0.738-0.895,0.978-1.446S9.803,5.879,9.803,5.25c0-0.625-0.12-1.213-0.359-1.767
		S8.879,2.447,8.466,2.037S7.572,1.302,7.021,1.063S5.879,0.704,5.25,0.704s-1.219,0.12-1.771,0.359S2.446,1.627,2.034,2.037
		S1.295,2.929,1.056,3.483S0.697,4.625,0.697,5.25z"/>
</g>
</svg>
